<svg xmlns="http://www.w3.org/2000/svg" viewBox="0 0 64 64" width="64" height="64" fill="none">
  <g stroke="#111" stroke-width="3" stroke-linecap="round" stroke-linejoin="round">
    <rect x="6" y="12" width="22" height="22" rx="4"></rect>
  </g>

  <g fill="#111">
    <circle cx="12.5" cy="18.5" r="2"></circle>
    <circle cx="21.5" cy="18.5" r="2"></circle>
    <circle cx="17" cy="23" r="2"></circle>
    <circle cx="12.5" cy="27.5" r="2"></circle>
    <circle cx="21.5" cy="27.5" r="2"></circle>
  </g>

  <g stroke="#111" stroke-width="3" stroke-linecap="round" stroke-linejoin="round">
    <path d="M41 14C39 11.5 39.5 8.5 43 7C46 5.8 50 7 51.5 10C52.5 12 52 14.5 50.5 16"></path>
    <path d="M35 22C35 19.5 36.8 18 39.5 18H51.5C54.2 18 56 19.5 56 22C56 24.5 54.5 26 53 27.2C56.2 30 58 34.2 58 39C58 48.8 51 56 43.5 56C36 56 29 48.8 29 39C29 34.2 30.8 30 34 27.2C32.5 26 31 24.5 31 22C31 19.5 32.8 18 35.5 18"></path>
    <path d="M31 22H56"></path>
    <path d="M36 29C38 31 40.5 32 43.5 32C46.5 32 49 31 51 29"></path>
    <path d="M39.5 22.5L38 26"></path>
    <path d="M47.5 22.5L49 26"></path>
  </g>
</svg>