<svg xmlns="http://www.w3.org/2000/svg" viewBox="0 0 24 16" role="img" aria-label="United Kingdom">
  <rect width="24" height="16" fill="#012169"/>
  <path d="M0 0L10 6.5H14L24 0V2.5L16 8l8 5.5V16L14 9.5H10L0 16v-2.5L8 8 0 2.5Z" fill="#FFF"/>
  <path d="M0 0v1.2L10.2 8H12L0 0ZM24 0 12 8h1.8L24 1.2V0ZM24 16v-1.2L13.8 8H12l12 8ZM0 16l12-8h-1.8L0 14.8V16Z" fill="#C8102E"/>
  <rect x="10" width="4" height="16" fill="#FFF"/>
  <rect y="6" width="24" height="4" fill="#FFF"/>
  <rect x="10.8" width="2.4" height="16" fill="#C8102E"/>
  <rect y="6.8" width="24" height="2.4" fill="#C8102E"/>
</svg>
